<mxfile host="app.diagrams.net" modified="2022-04-08T15:52:19.601Z" agent="5.0 (Windows NT 10.0; Win64; x64) AppleWebKit/537.36 (KHTML, like Gecko) Chrome/99.0.4844.84 Safari/537.36" etag="27HqTTXTosnBnpbU28rE" version="17.4.0" type="github">
  <diagram id="EuR3VpArMFBvW40rfFiC" name="Page-1">
    <mxGraphModel dx="496" dy="275" grid="0" gridSize="10" guides="1" tooltips="1" connect="1" arrows="1" fold="1" page="1" pageScale="1" pageWidth="827" pageHeight="1169" math="0" shadow="0">
      <root>
        <mxCell id="0" />
        <mxCell id="1" parent="0" />
        <mxCell id="rL0a_qPyrD0AK3357CQ7-1" value="&lt;b&gt;InternalOrder&lt;/b&gt;" style="swimlane;fontStyle=0;align=center;verticalAlign=middle;childLayout=stackLayout;horizontal=1;startSize=29;horizontalStack=0;resizeParent=1;resizeParentMax=0;resizeLast=0;collapsible=0;marginBottom=0;html=1;fontSize=12;labelPosition=center;verticalLabelPosition=middle;container=0;strokeColor=default;swimlaneLine=1;rounded=0;shadow=0;glass=0;sketch=0;perimeterSpacing=0;" parent="1" vertex="1">
          <mxGeometry x="453" y="203" width="150" height="211" as="geometry" />
        </mxCell>
        <mxCell id="rL0a_qPyrD0AK3357CQ7-2" value="- id: Long" style="text;strokeColor=none;fillColor=none;align=left;verticalAlign=top;spacingLeft=4;spacingRight=4;overflow=hidden;rotatable=0;points=[[0,0.5],[1,0.5]];portConstraint=eastwest;container=0;fontStyle=0" parent="rL0a_qPyrD0AK3357CQ7-1" vertex="1">
          <mxGeometry y="29" width="150" height="26" as="geometry" />
        </mxCell>
        <mxCell id="rL0a_qPyrD0AK3357CQ7-3" value="- code : String" style="text;strokeColor=none;fillColor=none;align=left;verticalAlign=top;spacingLeft=4;spacingRight=4;overflow=hidden;rotatable=0;points=[[0,0.5],[1,0.5]];portConstraint=eastwest;container=0;fontStyle=0" parent="rL0a_qPyrD0AK3357CQ7-1" vertex="1">
          <mxGeometry y="55" width="150" height="26" as="geometry" />
        </mxCell>
        <mxCell id="rL0a_qPyrD0AK3357CQ7-4" value="- name: String" style="text;strokeColor=none;fillColor=none;align=left;verticalAlign=top;spacingLeft=4;spacingRight=4;overflow=hidden;rotatable=0;points=[[0,0.5],[1,0.5]];portConstraint=eastwest;container=0;fontStyle=0" parent="rL0a_qPyrD0AK3357CQ7-1" vertex="1">
          <mxGeometry y="81" width="150" height="26" as="geometry" />
        </mxCell>
        <mxCell id="rL0a_qPyrD0AK3357CQ7-5" value="- plannedStartDate : Date" style="text;strokeColor=none;fillColor=none;align=left;verticalAlign=top;spacingLeft=4;spacingRight=4;overflow=hidden;rotatable=0;points=[[0,0.5],[1,0.5]];portConstraint=eastwest;container=0;fontStyle=0" parent="rL0a_qPyrD0AK3357CQ7-1" vertex="1">
          <mxGeometry y="107" width="150" height="26" as="geometry" />
        </mxCell>
        <mxCell id="rL0a_qPyrD0AK3357CQ7-6" value="- plannedEndDate : Date" style="text;strokeColor=none;fillColor=none;align=left;verticalAlign=top;spacingLeft=4;spacingRight=4;overflow=hidden;rotatable=0;points=[[0,0.5],[1,0.5]];portConstraint=eastwest;container=0;fontStyle=0" parent="rL0a_qPyrD0AK3357CQ7-1" vertex="1">
          <mxGeometry y="133" width="150" height="26" as="geometry" />
        </mxCell>
        <mxCell id="rL0a_qPyrD0AK3357CQ7-7" value="- startDate : Date" style="text;strokeColor=none;fillColor=none;align=left;verticalAlign=top;spacingLeft=4;spacingRight=4;overflow=hidden;rotatable=0;points=[[0,0.5],[1,0.5]];portConstraint=eastwest;container=0;fontStyle=0" parent="rL0a_qPyrD0AK3357CQ7-1" vertex="1">
          <mxGeometry y="159" width="150" height="26" as="geometry" />
        </mxCell>
        <mxCell id="rL0a_qPyrD0AK3357CQ7-8" value="- endDate : Date" style="text;strokeColor=none;fillColor=none;align=left;verticalAlign=top;spacingLeft=4;spacingRight=4;overflow=hidden;rotatable=0;points=[[0,0.5],[1,0.5]];portConstraint=eastwest;container=0;fontStyle=0" parent="rL0a_qPyrD0AK3357CQ7-1" vertex="1">
          <mxGeometry y="185" width="150" height="26" as="geometry" />
        </mxCell>
        <mxCell id="rL0a_qPyrD0AK3357CQ7-9" value="&lt;b&gt;&amp;lt;&amp;lt;enum&amp;gt;&amp;gt;&lt;br&gt;OrderStatus&lt;/b&gt;" style="swimlane;fontStyle=0;align=center;verticalAlign=middle;childLayout=stackLayout;horizontal=1;startSize=29;horizontalStack=0;resizeParent=1;resizeParentMax=0;resizeLast=0;collapsible=0;marginBottom=0;html=1;fontSize=12;labelPosition=center;verticalLabelPosition=middle;container=0;swimlaneLine=1;rounded=0;sketch=0;glass=0;" parent="1" vertex="1">
          <mxGeometry x="212" y="507" width="150" height="281" as="geometry" />
        </mxCell>
        <mxCell id="2ZZTmMsSaw752qg8GPPj-3" value="&lt;span&gt;&amp;nbsp;DRAFT&lt;/span&gt;" style="text;whiteSpace=wrap;html=1;fontStyle=0" parent="rL0a_qPyrD0AK3357CQ7-9" vertex="1">
          <mxGeometry y="29" width="150" height="28" as="geometry" />
        </mxCell>
        <mxCell id="2ZZTmMsSaw752qg8GPPj-1" value="&lt;span&gt;&amp;nbsp;SUBMITTED&lt;/span&gt;" style="text;whiteSpace=wrap;html=1;fontStyle=0" parent="rL0a_qPyrD0AK3357CQ7-9" vertex="1">
          <mxGeometry y="57" width="150" height="28" as="geometry" />
        </mxCell>
        <mxCell id="rL0a_qPyrD0AK3357CQ7-12" value="&amp;nbsp;VALIDATED" style="text;whiteSpace=wrap;html=1;fontStyle=0" parent="rL0a_qPyrD0AK3357CQ7-9" vertex="1">
          <mxGeometry y="85" width="150" height="28" as="geometry" />
        </mxCell>
        <mxCell id="rL0a_qPyrD0AK3357CQ7-13" value="&amp;nbsp;PLANNED" style="text;whiteSpace=wrap;html=1;fontStyle=0" parent="rL0a_qPyrD0AK3357CQ7-9" vertex="1">
          <mxGeometry y="113" width="150" height="28" as="geometry" />
        </mxCell>
        <mxCell id="rL0a_qPyrD0AK3357CQ7-14" value="&amp;nbsp;STARTED" style="text;whiteSpace=wrap;html=1;fontStyle=0" parent="rL0a_qPyrD0AK3357CQ7-9" vertex="1">
          <mxGeometry y="141" width="150" height="28" as="geometry" />
        </mxCell>
        <mxCell id="rL0a_qPyrD0AK3357CQ7-15" value="&amp;nbsp;DELIVERED" style="text;whiteSpace=wrap;html=1;fontStyle=0" parent="rL0a_qPyrD0AK3357CQ7-9" vertex="1">
          <mxGeometry y="169" width="150" height="28" as="geometry" />
        </mxCell>
        <mxCell id="rL0a_qPyrD0AK3357CQ7-16" value="&amp;nbsp;WARRANTY" style="text;whiteSpace=wrap;html=1;fontStyle=0" parent="rL0a_qPyrD0AK3357CQ7-9" vertex="1">
          <mxGeometry y="197" width="150" height="28" as="geometry" />
        </mxCell>
        <mxCell id="rL0a_qPyrD0AK3357CQ7-17" value="&amp;nbsp;CLOSED" style="text;whiteSpace=wrap;html=1;fontStyle=0" parent="rL0a_qPyrD0AK3357CQ7-9" vertex="1">
          <mxGeometry y="225" width="150" height="28" as="geometry" />
        </mxCell>
        <mxCell id="rL0a_qPyrD0AK3357CQ7-18" value="&amp;nbsp;CANCELLED" style="text;whiteSpace=wrap;html=1;fontStyle=0" parent="rL0a_qPyrD0AK3357CQ7-9" vertex="1">
          <mxGeometry y="253" width="150" height="28" as="geometry" />
        </mxCell>
        <mxCell id="rL0a_qPyrD0AK3357CQ7-19" value="&lt;b&gt;&amp;lt;&amp;lt;enum&amp;gt;&amp;gt;&lt;br&gt;InternalOrderType&lt;/b&gt;" style="swimlane;fontStyle=0;align=center;verticalAlign=middle;childLayout=stackLayout;horizontal=1;startSize=29;horizontalStack=0;resizeParent=1;resizeParentMax=0;resizeLast=0;collapsible=0;marginBottom=0;html=1;fontSize=12;labelPosition=center;verticalLabelPosition=middle;container=0;swimlaneLine=1;rounded=0;sketch=0;glass=0;" parent="1" vertex="1">
          <mxGeometry x="431" y="499" width="150" height="137" as="geometry" />
        </mxCell>
        <mxCell id="rL0a_qPyrD0AK3357CQ7-20" value="TIME_AND_MATERIAL" style="text;strokeColor=none;fillColor=none;align=left;verticalAlign=top;spacingLeft=4;spacingRight=4;overflow=hidden;rotatable=0;points=[[0,0.5],[1,0.5]];portConstraint=eastwest;container=0;fontStyle=0" parent="rL0a_qPyrD0AK3357CQ7-19" vertex="1">
          <mxGeometry y="29" width="150" height="26" as="geometry" />
        </mxCell>
        <mxCell id="rL0a_qPyrD0AK3357CQ7-21" value="FIXED_PRICE" style="text;strokeColor=none;fillColor=none;align=left;verticalAlign=top;spacingLeft=4;spacingRight=4;overflow=hidden;rotatable=0;points=[[0,0.5],[1,0.5]];portConstraint=eastwest;container=0;fontStyle=0" parent="rL0a_qPyrD0AK3357CQ7-19" vertex="1">
          <mxGeometry y="55" width="150" height="26" as="geometry" />
        </mxCell>
        <mxCell id="rL0a_qPyrD0AK3357CQ7-23" value="&amp;nbsp;SUPPORT_PROGRAM" style="text;whiteSpace=wrap;html=1;fontStyle=0" parent="rL0a_qPyrD0AK3357CQ7-19" vertex="1">
          <mxGeometry y="81" width="150" height="28" as="geometry" />
        </mxCell>
        <mxCell id="rL0a_qPyrD0AK3357CQ7-24" value="&amp;nbsp;LICENSE" style="text;whiteSpace=wrap;html=1;fontStyle=0" parent="rL0a_qPyrD0AK3357CQ7-19" vertex="1">
          <mxGeometry y="109" width="150" height="28" as="geometry" />
        </mxCell>
        <mxCell id="rL0a_qPyrD0AK3357CQ7-29" value="&lt;div&gt;&lt;b&gt;ClientOrder&lt;/b&gt;&lt;/div&gt;" style="swimlane;fontStyle=0;align=center;verticalAlign=middle;childLayout=stackLayout;horizontal=1;startSize=29;horizontalStack=0;resizeParent=1;resizeParentMax=0;resizeLast=0;collapsible=0;marginBottom=0;html=1;fontSize=12;labelPosition=center;verticalLabelPosition=middle;container=0;strokeColor=default;swimlaneLine=1;rounded=0;shadow=0;glass=0;sketch=0;perimeterSpacing=0;" parent="1" vertex="1">
          <mxGeometry x="212" y="212" width="150" height="239" as="geometry" />
        </mxCell>
        <mxCell id="rL0a_qPyrD0AK3357CQ7-30" value="- id: Long" style="text;strokeColor=none;fillColor=none;align=left;verticalAlign=top;spacingLeft=4;spacingRight=4;overflow=hidden;rotatable=0;points=[[0,0.5],[1,0.5]];portConstraint=eastwest;container=0;fontStyle=0" parent="rL0a_qPyrD0AK3357CQ7-29" vertex="1">
          <mxGeometry y="29" width="150" height="26" as="geometry" />
        </mxCell>
        <mxCell id="rL0a_qPyrD0AK3357CQ7-31" value="- code : String" style="text;strokeColor=none;fillColor=none;align=left;verticalAlign=top;spacingLeft=4;spacingRight=4;overflow=hidden;rotatable=0;points=[[0,0.5],[1,0.5]];portConstraint=eastwest;container=0;fontStyle=0" parent="rL0a_qPyrD0AK3357CQ7-29" vertex="1">
          <mxGeometry y="55" width="150" height="26" as="geometry" />
        </mxCell>
        <mxCell id="rL0a_qPyrD0AK3357CQ7-32" value="- name: String" style="text;strokeColor=none;fillColor=none;align=left;verticalAlign=top;spacingLeft=4;spacingRight=4;overflow=hidden;rotatable=0;points=[[0,0.5],[1,0.5]];portConstraint=eastwest;container=0;fontStyle=0" parent="rL0a_qPyrD0AK3357CQ7-29" vertex="1">
          <mxGeometry y="81" width="150" height="26" as="geometry" />
        </mxCell>
        <mxCell id="rL0a_qPyrD0AK3357CQ7-33" value="- plannedStartDate : Date" style="text;strokeColor=none;fillColor=none;align=left;verticalAlign=top;spacingLeft=4;spacingRight=4;overflow=hidden;rotatable=0;points=[[0,0.5],[1,0.5]];portConstraint=eastwest;container=0;fontStyle=0" parent="rL0a_qPyrD0AK3357CQ7-29" vertex="1">
          <mxGeometry y="107" width="150" height="26" as="geometry" />
        </mxCell>
        <mxCell id="rL0a_qPyrD0AK3357CQ7-34" value="- plannedEndDate : Date" style="text;strokeColor=none;fillColor=none;align=left;verticalAlign=top;spacingLeft=4;spacingRight=4;overflow=hidden;rotatable=0;points=[[0,0.5],[1,0.5]];portConstraint=eastwest;container=0;fontStyle=0" parent="rL0a_qPyrD0AK3357CQ7-29" vertex="1">
          <mxGeometry y="133" width="150" height="26" as="geometry" />
        </mxCell>
        <mxCell id="rL0a_qPyrD0AK3357CQ7-35" value="- startDate : Date" style="text;strokeColor=none;fillColor=none;align=left;verticalAlign=top;spacingLeft=4;spacingRight=4;overflow=hidden;rotatable=0;points=[[0,0.5],[1,0.5]];portConstraint=eastwest;container=0;fontStyle=0" parent="rL0a_qPyrD0AK3357CQ7-29" vertex="1">
          <mxGeometry y="159" width="150" height="26" as="geometry" />
        </mxCell>
        <mxCell id="rL0a_qPyrD0AK3357CQ7-36" value="- endDate : Date" style="text;strokeColor=none;fillColor=none;align=left;verticalAlign=top;spacingLeft=4;spacingRight=4;overflow=hidden;rotatable=0;points=[[0,0.5],[1,0.5]];portConstraint=eastwest;container=0;fontStyle=0" parent="rL0a_qPyrD0AK3357CQ7-29" vertex="1">
          <mxGeometry y="185" width="150" height="26" as="geometry" />
        </mxCell>
        <mxCell id="rL0a_qPyrD0AK3357CQ7-61" value="- stakeholderList : UUID" style="text;whiteSpace=wrap;html=1;" parent="rL0a_qPyrD0AK3357CQ7-29" vertex="1">
          <mxGeometry y="211" width="150" height="28" as="geometry" />
        </mxCell>
        <mxCell id="rL0a_qPyrD0AK3357CQ7-39" style="edgeStyle=orthogonalEdgeStyle;rounded=0;orthogonalLoop=1;jettySize=auto;html=1;dashed=1;endSize=4;startSize=4;fontStyle=0" parent="1" source="rL0a_qPyrD0AK3357CQ7-1" target="rL0a_qPyrD0AK3357CQ7-9" edge="1">
          <mxGeometry relative="1" as="geometry">
            <mxPoint x="396" y="496" as="targetPoint" />
            <Array as="points">
              <mxPoint x="479" y="462" />
              <mxPoint x="316" y="462" />
            </Array>
          </mxGeometry>
        </mxCell>
        <mxCell id="rL0a_qPyrD0AK3357CQ7-40" style="edgeStyle=orthogonalEdgeStyle;rounded=0;orthogonalLoop=1;jettySize=auto;html=1;dashed=1;startSize=4;endSize=4;fontStyle=0" parent="1" source="rL0a_qPyrD0AK3357CQ7-29" target="rL0a_qPyrD0AK3357CQ7-9" edge="1">
          <mxGeometry relative="1" as="geometry">
            <Array as="points">
              <mxPoint x="269" y="525" />
            </Array>
          </mxGeometry>
        </mxCell>
        <mxCell id="rL0a_qPyrD0AK3357CQ7-41" style="edgeStyle=orthogonalEdgeStyle;rounded=0;orthogonalLoop=1;jettySize=auto;html=1;dashed=1;endSize=4;startSize=4;fontStyle=0" parent="1" source="rL0a_qPyrD0AK3357CQ7-1" target="rL0a_qPyrD0AK3357CQ7-19" edge="1">
          <mxGeometry relative="1" as="geometry">
            <Array as="points">
              <mxPoint x="543" y="469" />
              <mxPoint x="543" y="469" />
            </Array>
          </mxGeometry>
        </mxCell>
        <mxCell id="rL0a_qPyrD0AK3357CQ7-42" style="edgeStyle=orthogonalEdgeStyle;rounded=0;orthogonalLoop=1;jettySize=auto;html=1;startSize=4;endSize=4;endArrow=none;endFill=0;fontStyle=0" parent="1" source="rL0a_qPyrD0AK3357CQ7-33" target="rL0a_qPyrD0AK3357CQ7-1" edge="1">
          <mxGeometry relative="1" as="geometry">
            <Array as="points">
              <mxPoint x="436" y="332" />
              <mxPoint x="436" y="332" />
            </Array>
          </mxGeometry>
        </mxCell>
        <mxCell id="rL0a_qPyrD0AK3357CQ7-43" value="*" style="edgeLabel;html=1;align=center;verticalAlign=middle;resizable=0;points=[];fontStyle=0" parent="rL0a_qPyrD0AK3357CQ7-42" vertex="1" connectable="0">
          <mxGeometry x="0.787" relative="1" as="geometry">
            <mxPoint as="offset" />
          </mxGeometry>
        </mxCell>
        <mxCell id="rL0a_qPyrD0AK3357CQ7-44" value="1" style="edgeLabel;html=1;align=center;verticalAlign=middle;resizable=0;points=[];fontStyle=0" parent="rL0a_qPyrD0AK3357CQ7-42" vertex="1" connectable="0">
          <mxGeometry x="-0.7797" y="1" relative="1" as="geometry">
            <mxPoint as="offset" />
          </mxGeometry>
        </mxCell>
        <mxCell id="rL0a_qPyrD0AK3357CQ7-54" value="&lt;b&gt;&amp;lt;&amp;lt;enum&amp;gt;&amp;gt;&lt;br&gt;&lt;span style=&quot;text-align: left&quot;&gt;SubOrderPriority&lt;/span&gt;&lt;/b&gt;" style="swimlane;fontStyle=0;align=center;verticalAlign=middle;childLayout=stackLayout;horizontal=1;startSize=29;horizontalStack=0;resizeParent=1;resizeParentMax=0;resizeLast=0;collapsible=0;marginBottom=0;html=1;fontSize=12;labelPosition=center;verticalLabelPosition=middle;container=0;swimlaneLine=1;rounded=0;sketch=0;glass=0;" parent="1" vertex="1">
          <mxGeometry x="650" y="499" width="150" height="109" as="geometry" />
        </mxCell>
        <mxCell id="rL0a_qPyrD0AK3357CQ7-55" value="CRITICAL" style="text;strokeColor=none;fillColor=none;align=left;verticalAlign=top;spacingLeft=4;spacingRight=4;overflow=hidden;rotatable=0;points=[[0,0.5],[1,0.5]];portConstraint=eastwest;container=0;fontStyle=0" parent="rL0a_qPyrD0AK3357CQ7-54" vertex="1">
          <mxGeometry y="29" width="150" height="26" as="geometry" />
        </mxCell>
        <mxCell id="rL0a_qPyrD0AK3357CQ7-56" value="MAJOR" style="text;strokeColor=none;fillColor=none;align=left;verticalAlign=top;spacingLeft=4;spacingRight=4;overflow=hidden;rotatable=0;points=[[0,0.5],[1,0.5]];portConstraint=eastwest;container=0;fontStyle=0" parent="rL0a_qPyrD0AK3357CQ7-54" vertex="1">
          <mxGeometry y="55" width="150" height="26" as="geometry" />
        </mxCell>
        <mxCell id="rL0a_qPyrD0AK3357CQ7-57" value="&amp;nbsp;MINOR" style="text;whiteSpace=wrap;html=1;fontStyle=0" parent="rL0a_qPyrD0AK3357CQ7-54" vertex="1">
          <mxGeometry y="81" width="150" height="28" as="geometry" />
        </mxCell>
        <mxCell id="rL0a_qPyrD0AK3357CQ7-60" style="edgeStyle=orthogonalEdgeStyle;rounded=0;orthogonalLoop=1;jettySize=auto;html=1;endArrow=classic;endFill=1;startSize=4;endSize=4;dashed=1;" parent="1" source="rL0a_qPyrD0AK3357CQ7-1" target="rL0a_qPyrD0AK3357CQ7-54" edge="1">
          <mxGeometry relative="1" as="geometry">
            <Array as="points">
              <mxPoint x="725" y="370" />
            </Array>
          </mxGeometry>
        </mxCell>
        <mxCell id="bWaEOIjMf3KWSn0VKuWP-1" value="&lt;b&gt;&amp;lt;&amp;lt;enum&amp;gt;&amp;gt;&lt;/b&gt;&lt;br&gt;&lt;div style=&quot;text-align: left&quot;&gt;&lt;span&gt;&lt;b&gt;OrderDiscountType&lt;/b&gt;&lt;/span&gt;&lt;/div&gt;" style="swimlane;fontStyle=0;align=center;verticalAlign=middle;childLayout=stackLayout;horizontal=1;startSize=29;horizontalStack=0;resizeParent=1;resizeParentMax=0;resizeLast=0;collapsible=0;marginBottom=0;html=1;fontSize=12;labelPosition=center;verticalLabelPosition=middle;container=0;swimlaneLine=1;rounded=0;sketch=0;glass=0;" parent="1" vertex="1">
          <mxGeometry x="23" y="507" width="150" height="81" as="geometry" />
        </mxCell>
        <mxCell id="bWaEOIjMf3KWSn0VKuWP-2" value="AMOUNT" style="text;strokeColor=none;fillColor=none;align=left;verticalAlign=top;spacingLeft=4;spacingRight=4;overflow=hidden;rotatable=0;points=[[0,0.5],[1,0.5]];portConstraint=eastwest;container=0;fontStyle=0" parent="bWaEOIjMf3KWSn0VKuWP-1" vertex="1">
          <mxGeometry y="29" width="150" height="26" as="geometry" />
        </mxCell>
        <mxCell id="bWaEOIjMf3KWSn0VKuWP-3" value="PERCENTAGE" style="text;strokeColor=none;fillColor=none;align=left;verticalAlign=top;spacingLeft=4;spacingRight=4;overflow=hidden;rotatable=0;points=[[0,0.5],[1,0.5]];portConstraint=eastwest;container=0;fontStyle=0" parent="bWaEOIjMf3KWSn0VKuWP-1" vertex="1">
          <mxGeometry y="55" width="150" height="26" as="geometry" />
        </mxCell>
        <mxCell id="bWaEOIjMf3KWSn0VKuWP-5" style="edgeStyle=orthogonalEdgeStyle;rounded=0;orthogonalLoop=1;jettySize=auto;html=1;dashed=1;endSize=5;startSize=5;" parent="1" source="rL0a_qPyrD0AK3357CQ7-29" target="bWaEOIjMf3KWSn0VKuWP-1" edge="1">
          <mxGeometry relative="1" as="geometry">
            <Array as="points">
              <mxPoint x="98" y="429" />
            </Array>
          </mxGeometry>
        </mxCell>
        <mxCell id="v9GyO0bt5FI3unl8SER5-13" style="edgeStyle=orthogonalEdgeStyle;rounded=0;orthogonalLoop=1;jettySize=auto;html=1;endSize=5;startSize=5;endArrow=none;endFill=0;" edge="1" parent="1" source="v9GyO0bt5FI3unl8SER5-1" target="rL0a_qPyrD0AK3357CQ7-1">
          <mxGeometry relative="1" as="geometry">
            <Array as="points">
              <mxPoint x="692" y="339" />
              <mxPoint x="692" y="339" />
            </Array>
          </mxGeometry>
        </mxCell>
        <mxCell id="v9GyO0bt5FI3unl8SER5-14" value="*" style="edgeLabel;html=1;align=center;verticalAlign=middle;resizable=0;points=[];" vertex="1" connectable="0" parent="v9GyO0bt5FI3unl8SER5-13">
          <mxGeometry x="-0.9369" relative="1" as="geometry">
            <mxPoint as="offset" />
          </mxGeometry>
        </mxCell>
        <mxCell id="v9GyO0bt5FI3unl8SER5-15" value="1" style="edgeLabel;html=1;align=center;verticalAlign=middle;resizable=0;points=[];" vertex="1" connectable="0" parent="v9GyO0bt5FI3unl8SER5-13">
          <mxGeometry x="0.9323" relative="1" as="geometry">
            <mxPoint as="offset" />
          </mxGeometry>
        </mxCell>
        <mxCell id="v9GyO0bt5FI3unl8SER5-21" style="edgeStyle=orthogonalEdgeStyle;rounded=0;orthogonalLoop=1;jettySize=auto;html=1;endArrow=classic;endFill=1;startSize=5;endSize=5;dashed=1;" edge="1" parent="1" source="v9GyO0bt5FI3unl8SER5-1" target="v9GyO0bt5FI3unl8SER5-16">
          <mxGeometry relative="1" as="geometry">
            <Array as="points">
              <mxPoint x="1117" y="427" />
            </Array>
          </mxGeometry>
        </mxCell>
        <mxCell id="v9GyO0bt5FI3unl8SER5-1" value="&lt;b&gt;PhaseLine&lt;/b&gt;" style="swimlane;fontStyle=0;align=center;verticalAlign=middle;childLayout=stackLayout;horizontal=1;startSize=29;horizontalStack=0;resizeParent=1;resizeParentMax=0;resizeLast=0;collapsible=0;marginBottom=0;html=1;fontSize=12;labelPosition=center;verticalLabelPosition=middle;container=0;strokeColor=default;swimlaneLine=1;rounded=0;shadow=0;glass=0;sketch=0;perimeterSpacing=0;" vertex="1" parent="1">
          <mxGeometry x="854" y="269" width="160" height="315" as="geometry" />
        </mxCell>
        <mxCell id="v9GyO0bt5FI3unl8SER5-2" value="- id: Long" style="text;strokeColor=none;fillColor=none;align=left;verticalAlign=top;spacingLeft=4;spacingRight=4;overflow=hidden;rotatable=0;points=[[0,0.5],[1,0.5]];portConstraint=eastwest;container=0;fontStyle=0" vertex="1" parent="v9GyO0bt5FI3unl8SER5-1">
          <mxGeometry y="29" width="160" height="26" as="geometry" />
        </mxCell>
        <mxCell id="v9GyO0bt5FI3unl8SER5-3" value="- code : String" style="text;strokeColor=none;fillColor=none;align=left;verticalAlign=top;spacingLeft=4;spacingRight=4;overflow=hidden;rotatable=0;points=[[0,0.5],[1,0.5]];portConstraint=eastwest;container=0;fontStyle=0" vertex="1" parent="v9GyO0bt5FI3unl8SER5-1">
          <mxGeometry y="55" width="160" height="26" as="geometry" />
        </mxCell>
        <mxCell id="v9GyO0bt5FI3unl8SER5-4" value="- summary: String" style="text;strokeColor=none;fillColor=none;align=left;verticalAlign=top;spacingLeft=4;spacingRight=4;overflow=hidden;rotatable=0;points=[[0,0.5],[1,0.5]];portConstraint=eastwest;container=0;fontStyle=0" vertex="1" parent="v9GyO0bt5FI3unl8SER5-1">
          <mxGeometry y="81" width="160" height="26" as="geometry" />
        </mxCell>
        <mxCell id="v9GyO0bt5FI3unl8SER5-5" value="- plannedStartDate : Date" style="text;strokeColor=none;fillColor=none;align=left;verticalAlign=top;spacingLeft=4;spacingRight=4;overflow=hidden;rotatable=0;points=[[0,0.5],[1,0.5]];portConstraint=eastwest;container=0;fontStyle=0" vertex="1" parent="v9GyO0bt5FI3unl8SER5-1">
          <mxGeometry y="107" width="160" height="26" as="geometry" />
        </mxCell>
        <mxCell id="v9GyO0bt5FI3unl8SER5-6" value="- plannedEndDate : Date" style="text;strokeColor=none;fillColor=none;align=left;verticalAlign=top;spacingLeft=4;spacingRight=4;overflow=hidden;rotatable=0;points=[[0,0.5],[1,0.5]];portConstraint=eastwest;container=0;fontStyle=0" vertex="1" parent="v9GyO0bt5FI3unl8SER5-1">
          <mxGeometry y="133" width="160" height="26" as="geometry" />
        </mxCell>
        <mxCell id="v9GyO0bt5FI3unl8SER5-7" value="- durationInDays: Int" style="text;strokeColor=none;fillColor=none;align=left;verticalAlign=top;spacingLeft=4;spacingRight=4;overflow=hidden;rotatable=0;points=[[0,0.5],[1,0.5]];portConstraint=eastwest;container=0;fontStyle=0" vertex="1" parent="v9GyO0bt5FI3unl8SER5-1">
          <mxGeometry y="159" width="160" height="26" as="geometry" />
        </mxCell>
        <mxCell id="v9GyO0bt5FI3unl8SER5-8" value="- budget: Double" style="text;strokeColor=none;fillColor=none;align=left;verticalAlign=top;spacingLeft=4;spacingRight=4;overflow=hidden;rotatable=0;points=[[0,0.5],[1,0.5]];portConstraint=eastwest;container=0;fontStyle=0" vertex="1" parent="v9GyO0bt5FI3unl8SER5-1">
          <mxGeometry y="185" width="160" height="26" as="geometry" />
        </mxCell>
        <mxCell id="v9GyO0bt5FI3unl8SER5-9" value="- averageCost: Double" style="text;strokeColor=none;fillColor=none;align=left;verticalAlign=top;spacingLeft=4;spacingRight=4;overflow=hidden;rotatable=0;points=[[0,0.5],[1,0.5]];portConstraint=eastwest;container=0;fontStyle=0" vertex="1" parent="v9GyO0bt5FI3unl8SER5-1">
          <mxGeometry y="211" width="160" height="26" as="geometry" />
        </mxCell>
        <mxCell id="v9GyO0bt5FI3unl8SER5-11" value="- averageProfitMargin: Float" style="text;strokeColor=none;fillColor=none;align=left;verticalAlign=top;spacingLeft=4;spacingRight=4;overflow=hidden;rotatable=0;points=[[0,0.5],[1,0.5]];portConstraint=eastwest;container=0;fontStyle=0" vertex="1" parent="v9GyO0bt5FI3unl8SER5-1">
          <mxGeometry y="237" width="160" height="26" as="geometry" />
        </mxCell>
        <mxCell id="v9GyO0bt5FI3unl8SER5-10" value="- order: Int" style="text;strokeColor=none;fillColor=none;align=left;verticalAlign=top;spacingLeft=4;spacingRight=4;overflow=hidden;rotatable=0;points=[[0,0.5],[1,0.5]];portConstraint=eastwest;container=0;fontStyle=0" vertex="1" parent="v9GyO0bt5FI3unl8SER5-1">
          <mxGeometry y="263" width="160" height="26" as="geometry" />
        </mxCell>
        <mxCell id="v9GyO0bt5FI3unl8SER5-12" value="- notes: String" style="text;strokeColor=none;fillColor=none;align=left;verticalAlign=top;spacingLeft=4;spacingRight=4;overflow=hidden;rotatable=0;points=[[0,0.5],[1,0.5]];portConstraint=eastwest;container=0;fontStyle=0" vertex="1" parent="v9GyO0bt5FI3unl8SER5-1">
          <mxGeometry y="289" width="160" height="26" as="geometry" />
        </mxCell>
        <mxCell id="v9GyO0bt5FI3unl8SER5-16" value="&lt;b&gt;&amp;lt;&amp;lt;enum&amp;gt;&amp;gt;&lt;/b&gt;&lt;br&gt;&lt;div&gt;&lt;b&gt;phasetype&lt;/b&gt;&lt;/div&gt;" style="swimlane;fontStyle=0;align=center;verticalAlign=middle;childLayout=stackLayout;horizontal=1;startSize=27;horizontalStack=0;resizeParent=1;resizeParentMax=0;resizeLast=0;collapsible=0;marginBottom=0;html=1;fontSize=12;labelPosition=center;verticalLabelPosition=middle;container=0;swimlaneLine=1;rounded=0;sketch=0;glass=0;" vertex="1" parent="1">
          <mxGeometry x="1054" y="496" width="116" height="135" as="geometry" />
        </mxCell>
        <mxCell id="v9GyO0bt5FI3unl8SER5-17" value="SCOPING" style="text;strokeColor=none;fillColor=none;align=left;verticalAlign=top;spacingLeft=4;spacingRight=4;overflow=hidden;rotatable=0;points=[[0,0.5],[1,0.5]];portConstraint=eastwest;container=0;fontStyle=0" vertex="1" parent="v9GyO0bt5FI3unl8SER5-16">
          <mxGeometry y="27" width="116" height="26" as="geometry" />
        </mxCell>
        <mxCell id="v9GyO0bt5FI3unl8SER5-18" value="DEVELOPMENT" style="text;strokeColor=none;fillColor=none;align=left;verticalAlign=top;spacingLeft=4;spacingRight=4;overflow=hidden;rotatable=0;points=[[0,0.5],[1,0.5]];portConstraint=eastwest;container=0;fontStyle=0" vertex="1" parent="v9GyO0bt5FI3unl8SER5-16">
          <mxGeometry y="53" width="116" height="26" as="geometry" />
        </mxCell>
        <mxCell id="v9GyO0bt5FI3unl8SER5-19" value="DEPLOY" style="text;whiteSpace=wrap;html=1;fontStyle=0" vertex="1" parent="v9GyO0bt5FI3unl8SER5-16">
          <mxGeometry y="79" width="116" height="28" as="geometry" />
        </mxCell>
        <mxCell id="v9GyO0bt5FI3unl8SER5-20" value="WARRANTY" style="text;whiteSpace=wrap;html=1;fontStyle=0" vertex="1" parent="v9GyO0bt5FI3unl8SER5-16">
          <mxGeometry y="107" width="116" height="28" as="geometry" />
        </mxCell>
        <mxCell id="v9GyO0bt5FI3unl8SER5-22" value="&lt;b&gt;PlannedInvoicing&lt;/b&gt;" style="swimlane;fontStyle=0;align=center;verticalAlign=middle;childLayout=stackLayout;horizontal=1;startSize=29;horizontalStack=0;resizeParent=1;resizeParentMax=0;resizeLast=0;collapsible=0;marginBottom=0;html=1;fontSize=12;labelPosition=center;verticalLabelPosition=middle;container=0;strokeColor=default;swimlaneLine=1;rounded=0;shadow=0;glass=0;sketch=0;perimeterSpacing=0;" vertex="1" parent="1">
          <mxGeometry x="643" y="713" width="160" height="289" as="geometry" />
        </mxCell>
        <mxCell id="v9GyO0bt5FI3unl8SER5-23" value="- id: Long" style="text;strokeColor=none;fillColor=none;align=left;verticalAlign=top;spacingLeft=4;spacingRight=4;overflow=hidden;rotatable=0;points=[[0,0.5],[1,0.5]];portConstraint=eastwest;container=0;fontStyle=0" vertex="1" parent="v9GyO0bt5FI3unl8SER5-22">
          <mxGeometry y="29" width="160" height="26" as="geometry" />
        </mxCell>
        <mxCell id="v9GyO0bt5FI3unl8SER5-25" value="- summary: String" style="text;strokeColor=none;fillColor=none;align=left;verticalAlign=top;spacingLeft=4;spacingRight=4;overflow=hidden;rotatable=0;points=[[0,0.5],[1,0.5]];portConstraint=eastwest;container=0;fontStyle=0" vertex="1" parent="v9GyO0bt5FI3unl8SER5-22">
          <mxGeometry y="55" width="160" height="26" as="geometry" />
        </mxCell>
        <mxCell id="v9GyO0bt5FI3unl8SER5-26" value="- plannedStartDate : Date" style="text;strokeColor=none;fillColor=none;align=left;verticalAlign=top;spacingLeft=4;spacingRight=4;overflow=hidden;rotatable=0;points=[[0,0.5],[1,0.5]];portConstraint=eastwest;container=0;fontStyle=0" vertex="1" parent="v9GyO0bt5FI3unl8SER5-22">
          <mxGeometry y="81" width="160" height="26" as="geometry" />
        </mxCell>
        <mxCell id="v9GyO0bt5FI3unl8SER5-27" value="- plannedEndDate : Date" style="text;strokeColor=none;fillColor=none;align=left;verticalAlign=top;spacingLeft=4;spacingRight=4;overflow=hidden;rotatable=0;points=[[0,0.5],[1,0.5]];portConstraint=eastwest;container=0;fontStyle=0" vertex="1" parent="v9GyO0bt5FI3unl8SER5-22">
          <mxGeometry y="107" width="160" height="26" as="geometry" />
        </mxCell>
        <mxCell id="v9GyO0bt5FI3unl8SER5-28" value="- durationInDays: Int" style="text;strokeColor=none;fillColor=none;align=left;verticalAlign=top;spacingLeft=4;spacingRight=4;overflow=hidden;rotatable=0;points=[[0,0.5],[1,0.5]];portConstraint=eastwest;container=0;fontStyle=0" vertex="1" parent="v9GyO0bt5FI3unl8SER5-22">
          <mxGeometry y="133" width="160" height="26" as="geometry" />
        </mxCell>
        <mxCell id="v9GyO0bt5FI3unl8SER5-29" value="- budget: Double" style="text;strokeColor=none;fillColor=none;align=left;verticalAlign=top;spacingLeft=4;spacingRight=4;overflow=hidden;rotatable=0;points=[[0,0.5],[1,0.5]];portConstraint=eastwest;container=0;fontStyle=0" vertex="1" parent="v9GyO0bt5FI3unl8SER5-22">
          <mxGeometry y="159" width="160" height="26" as="geometry" />
        </mxCell>
        <mxCell id="v9GyO0bt5FI3unl8SER5-30" value="- averageCost: Double" style="text;strokeColor=none;fillColor=none;align=left;verticalAlign=top;spacingLeft=4;spacingRight=4;overflow=hidden;rotatable=0;points=[[0,0.5],[1,0.5]];portConstraint=eastwest;container=0;fontStyle=0" vertex="1" parent="v9GyO0bt5FI3unl8SER5-22">
          <mxGeometry y="185" width="160" height="26" as="geometry" />
        </mxCell>
        <mxCell id="v9GyO0bt5FI3unl8SER5-31" value="- averageProfitMargin: Float" style="text;strokeColor=none;fillColor=none;align=left;verticalAlign=top;spacingLeft=4;spacingRight=4;overflow=hidden;rotatable=0;points=[[0,0.5],[1,0.5]];portConstraint=eastwest;container=0;fontStyle=0" vertex="1" parent="v9GyO0bt5FI3unl8SER5-22">
          <mxGeometry y="211" width="160" height="26" as="geometry" />
        </mxCell>
        <mxCell id="v9GyO0bt5FI3unl8SER5-32" value="- order: Int" style="text;strokeColor=none;fillColor=none;align=left;verticalAlign=top;spacingLeft=4;spacingRight=4;overflow=hidden;rotatable=0;points=[[0,0.5],[1,0.5]];portConstraint=eastwest;container=0;fontStyle=0" vertex="1" parent="v9GyO0bt5FI3unl8SER5-22">
          <mxGeometry y="237" width="160" height="26" as="geometry" />
        </mxCell>
        <mxCell id="v9GyO0bt5FI3unl8SER5-33" value="- notes: String" style="text;strokeColor=none;fillColor=none;align=left;verticalAlign=top;spacingLeft=4;spacingRight=4;overflow=hidden;rotatable=0;points=[[0,0.5],[1,0.5]];portConstraint=eastwest;container=0;fontStyle=0" vertex="1" parent="v9GyO0bt5FI3unl8SER5-22">
          <mxGeometry y="263" width="160" height="26" as="geometry" />
        </mxCell>
      </root>
    </mxGraphModel>
  </diagram>
</mxfile>
